<?xml version="1.0" encoding="UTF-8" standalone="no"?>
<!DOCTYPE svg PUBLIC "-//W3C//DTD SVG 1.1//EN" "http://www.w3.org/Graphics/SVG/1.1/DTD/svg11.dtd">
<svg width="100%" height="100%" viewBox="0 0 24 24" version="1.1" xmlns="http://www.w3.org/2000/svg" xmlns:xlink="http://www.w3.org/1999/xlink" xml:space="preserve" xmlns:serif="http://www.serif.com/" style="fill-rule:evenodd;clip-rule:evenodd;stroke-linejoin:round;stroke-miterlimit:2;">
    <path d="M16.272,5.451C16.096,5.001 16,4.512 16,4C16,1.792 17.792,-0 20,-0C22.208,-0 24,1.792 24,4C24,6.208 22.208,8 20,8C18.661,8 17.475,7.341 16.749,6.33L9.618,10.081C9.864,10.672 10,11.32 10,12C10,12.681 9.864,13.33 9.616,13.922L16.747,17.673C17.473,16.66 18.66,16 20,16C22.208,16 24,17.792 24,20C24,22.208 22.208,24 20,24C17.792,24 16,22.208 16,20C16,19.49 16.096,19.001 16.27,18.553L9.141,14.802C8.241,16.128 6.722,17 5,17C2.24,17 0,14.76 0,12C0,9.24 2.24,7 5,7C6.723,7 8.243,7.873 9.143,9.201L16.272,5.451ZM20,17C21.656,17 23,18.344 23,20C23,21.656 21.656,23 20,23C18.344,23 17,21.656 17,20C17,18.344 18.344,17 20,17ZM5,8C7.208,8 9,9.792 9,12C9,14.208 7.208,16 5,16C2.792,16 1,14.208 1,12C1,9.792 2.792,8 5,8ZM20,1C21.656,1 23,2.344 23,4C23,5.656 21.656,7 20,7C18.344,7 17,5.656 17,4C17,2.344 18.344,1 20,1Z" style="fill:rgb(193,202,187);fill-opacity:0.5;"/>
</svg>
